<svg version="1.1" xmlns="http://www.w3.org/2000/svg" xmlns:xlink="http://www.w3.org/1999/xlink" width="609.23375" height="488.93111" viewBox="0,0,609.23375,488.93111"><g transform="translate(64.49317,64.66804)"><g data-paper-data="{&quot;isPaintingLayer&quot;:true}" fill-rule="nonzero" stroke-linejoin="miter" stroke-miterlimit="10" stroke-dasharray="" stroke-dashoffset="0" style="mix-blend-mode: normal"><path d="M-48.49998,413.25v-466.5h577v466.5z" fill="#000000" stroke="none" stroke-width="0" stroke-linecap="butt"/><text transform="translate(106.25785,74.90056) scale(1.62161,1.62161)" font-size="40" xml:space="preserve" fill="#ffffff" fill-rule="nonzero" stroke="none" stroke-width="1" stroke-linecap="butt" stroke-linejoin="miter" stroke-miterlimit="10" stroke-dasharray="" stroke-dashoffset="0" font-family="Sans Serif" font-weight="normal" text-anchor="start" style="mix-blend-mode: normal"><tspan x="0" dy="0">Loading</tspan></text><text transform="translate(18.07018,140.346) scale(0.72284,0.72284)" font-size="40" xml:space="preserve" fill="#ffffff" fill-rule="nonzero" stroke="none" stroke-width="1" stroke-linecap="butt" stroke-linejoin="miter" stroke-miterlimit="10" stroke-dasharray="" stroke-dashoffset="0" font-family="Sans Serif" font-weight="normal" text-anchor="start" style="mix-blend-mode: normal"><tspan x="0" dy="0">Game Created By: FrigidRaccoon</tspan></text><text transform="translate(18.07018,184.43984) scale(0.72284,0.72284)" font-size="40" xml:space="preserve" fill="#ffffff" fill-rule="nonzero" stroke="none" stroke-width="1" stroke-linecap="butt" stroke-linejoin="miter" stroke-miterlimit="10" stroke-dasharray="" stroke-dashoffset="0" font-family="Sans Serif" font-weight="normal" text-anchor="start" style="mix-blend-mode: normal"><tspan x="0" dy="0">Game Idea by: S0M3RAND0MGY</tspan></text><path d="M29.12908,-0.52793c0,0 -5.27916,0.74276 -9.67865,3.62549c-3.68099,2.41193 -6.52352,4.27779 -8.80478,6.60209c-1.20824,1.23104 -4.74761,6.05691 -6.01279,8.00684c-3.28648,5.06524 -4.65267,12.34041 -4.65267,12.34041l-5.43041,6.71384l-0.26778,-44.7197l39.98888,3.92748z" fill="#00c91e" stroke="#000000" stroke-width="1.5" stroke-linecap="round"/><path d="M34.27085,363.73423l-39.98887,3.92748l0.26778,-44.7197l5.43042,6.71384c0,0 1.36619,7.27518 4.65267,12.34041c1.26518,1.94993 4.80454,6.7758 6.01279,8.00684c2.28126,2.3243 5.12379,4.19016 8.80478,6.60209c4.39949,2.88272 9.67865,3.62549 9.67865,3.62549z" data-paper-data="{&quot;index&quot;:null}" fill="#00c91e" stroke="#000000" stroke-width="1.5" stroke-linecap="round"/><path d="M445.78013,-4.03148l39.98888,-3.92748l-0.26779,44.7197l-5.43042,-6.71384c0,0 -1.36619,-7.27517 -4.65267,-12.34041c-1.26517,-1.94993 -4.80454,-6.7758 -6.01279,-8.00684c-2.28126,-2.3243 -5.12379,-4.19016 -8.80478,-6.60209c-4.39949,-2.88272 -9.67865,-3.62548 -9.67865,-3.62548z" data-paper-data="{&quot;index&quot;:null}" fill="#00c91e" stroke="#000000" stroke-width="1.5" stroke-linecap="round"/><path d="M450.92192,360.23068c0,0 5.27916,-0.74277 9.67865,-3.62549c3.68099,-2.41193 6.52352,-4.27778 8.80478,-6.60209c1.20824,-1.23104 4.74761,-6.05691 6.01279,-8.00684c3.28648,-5.06523 4.65267,-12.34041 4.65267,-12.34041l5.43042,-6.71384l0.26779,44.7197l-39.98888,-3.92748z" data-paper-data="{&quot;index&quot;:null}" fill="#00c91e" stroke="#000000" stroke-width="1.5" stroke-linecap="round"/><path d="M-63.74316,330.33671v-300.60285h64.0631v300.60285z" fill="none" stroke="#000000" stroke-width="1.5" stroke-linecap="butt"/><path d="M479.92749,329.84433v-300.60285h64.0631v300.60285z" fill="none" stroke="#000000" stroke-width="1.5" stroke-linecap="butt"/><path d="M26.14202,-63.91804h428.72905v64.0631h-428.72905z" fill="none" stroke="#000000" stroke-width="1.5" stroke-linecap="butt"/><path d="M26.14202,359.44997h428.72905v64.0631h-428.72905z" fill="none" stroke="#000000" stroke-width="1.5" stroke-linecap="butt"/><path d="M300.83444,333.15433v-119.61225h155.64665v119.61225z" fill-opacity="0.38306" fill="#ffffff" stroke="none" stroke-width="0" stroke-linecap="butt"/><text transform="translate(439.76853,314.12462) rotate(90) scale(0.5,0.5)" font-size="40" xml:space="preserve" fill="#ffffff" fill-rule="nonzero" stroke="none" stroke-width="1" stroke-linecap="butt" stroke-linejoin="miter" stroke-miterlimit="10" stroke-dasharray="" stroke-dashoffset="0" font-family="Sans Serif" font-weight="normal" text-anchor="start" style="mix-blend-mode: normal"><tspan x="0" dy="0">:P</tspan></text><path d="M19.90993,270.90516v-57.57327h277.02546v57.57327z" fill-opacity="0.38306" fill="#ffffff" stroke="none" stroke-width="0" stroke-linecap="butt"/><path d="M19.8265,333.15433v-57.57326h276.96306v57.57326z" fill-opacity="0.38306" fill="#ffffff" stroke="none" stroke-width="0" stroke-linecap="butt"/><text transform="translate(23.89288,224.61002) scale(0.27806,0.27806)" font-size="40" xml:space="preserve" fill="#000000" fill-rule="nonzero" stroke="none" stroke-width="1" stroke-linecap="butt" stroke-linejoin="miter" stroke-miterlimit="10" stroke-dasharray="" stroke-dashoffset="0" font-family="Sans Serif" font-weight="normal" text-anchor="start" style="mix-blend-mode: normal"><tspan x="0" dy="0">Thanks to @rayansrichai for their song(Arps)</tspan><tspan x="0" dy="48px">Check out thier project here, or copy the link</tspan><tspan x="0" dy="48px">in the description(Menu Music): </tspan><tspan x="0" dy="48px">https://scratch.mit.edu/projects/103531109/</tspan><tspan x="0" dy="48px"> </tspan></text><text transform="translate(302.87388,240.91544) scale(0.27806,0.27806)" font-size="40" xml:space="preserve" fill="#000000" fill-rule="nonzero" stroke="none" stroke-width="1" stroke-linecap="butt" stroke-linejoin="miter" stroke-miterlimit="10" stroke-dasharray="" stroke-dashoffset="0" font-family="Sans Serif" font-weight="normal" text-anchor="start" style="mix-blend-mode: normal"><tspan x="0" dy="0">Instructions:</tspan><tspan x="0" dy="48px">   Click on the pumpkin to</tspan><tspan x="0" dy="48px">   gain currency, defend the</tspan><tspan x="0" dy="48px">   pumpkin at all costs, buy</tspan><tspan x="0" dy="48px">   turrets to defend</tspan><tspan x="0" dy="48px">   pumpkin.</tspan></text><text transform="translate(21.34756,287.52095) scale(0.27806,0.27806)" font-size="40" xml:space="preserve" fill="#000000" fill-rule="nonzero" stroke="none" stroke-width="1" stroke-linecap="butt" stroke-linejoin="miter" stroke-miterlimit="10" stroke-dasharray="" stroke-dashoffset="0" font-family="Sans Serif" font-weight="normal" text-anchor="start" style="mix-blend-mode: normal"><tspan x="0" dy="0">Thanks to @FunnelzINC for their song(Time Shifter)</tspan><tspan x="0" dy="48px">Check out thier project here, or copy the link in the</tspan><tspan x="0" dy="48px">description(Main Game Music): </tspan><tspan x="0" dy="48px">https://scratch.mit.edu/projects/1233973291/ </tspan></text><text transform="translate(302.87574,230.71739) scale(0.43537,0.43537)" font-size="40" xml:space="preserve" fill="#ff0000" fill-rule="nonzero" stroke="none" stroke-width="1" stroke-linecap="butt" stroke-linejoin="miter" stroke-miterlimit="10" stroke-dasharray="" stroke-dashoffset="0" font-family="Sans Serif" font-weight="normal" text-anchor="start" style="mix-blend-mode: normal"><tspan x="0" dy="0">READ:</tspan></text></g></g></svg>