<svg version="1.1" xmlns="http://www.w3.org/2000/svg" xmlns:xlink="http://www.w3.org/1999/xlink" width="609.23375" height="488.93111" viewBox="0,0,609.23375,488.93111"><g transform="translate(64.49318,64.66805)"><g data-paper-data="{&quot;isPaintingLayer&quot;:true}" fill-rule="nonzero" stroke="#000000" stroke-width="1.5" stroke-linejoin="miter" stroke-miterlimit="10" stroke-dasharray="" stroke-dashoffset="0" style="mix-blend-mode: normal"><path d="M29.12907,-0.52794c0,0 -5.27916,0.74276 -9.67865,3.62549c-3.68099,2.41193 -6.52352,4.27779 -8.80478,6.60209c-1.20824,1.23104 -4.74761,6.05691 -6.01279,8.00684c-3.28648,5.06524 -4.65267,12.34041 -4.65267,12.34041l-5.43041,6.71384l-0.26778,-44.7197l39.98888,3.92748z" fill="#00c91e" stroke-linecap="round"/><path d="M34.27085,363.73423l-39.98887,3.92748l0.26778,-44.7197l5.43042,6.71384c0,0 1.36619,7.27518 4.65267,12.34041c1.26518,1.94993 4.80454,6.7758 6.01279,8.00684c2.28126,2.3243 5.12379,4.19016 8.80478,6.60209c4.39949,2.88272 9.67865,3.62549 9.67865,3.62549z" data-paper-data="{&quot;index&quot;:null}" fill="#00c91e" stroke-linecap="round"/><path d="M445.78011,-4.03148l39.98888,-3.92748l-0.26779,44.7197l-5.43042,-6.71384c0,0 -1.36619,-7.27517 -4.65267,-12.34041c-1.26517,-1.94993 -4.80454,-6.7758 -6.01279,-8.00684c-2.28126,-2.3243 -5.12379,-4.19016 -8.80478,-6.60209c-4.39949,-2.88272 -9.67865,-3.62548 -9.67865,-3.62548z" data-paper-data="{&quot;index&quot;:null}" fill="#00c91e" stroke-linecap="round"/><path d="M450.9219,360.23068c0,0 5.27916,-0.74277 9.67865,-3.62549c3.68099,-2.41193 6.52352,-4.27778 8.80478,-6.60209c1.20824,-1.23104 4.74761,-6.05691 6.01279,-8.00684c3.28648,-5.06523 4.65267,-12.34041 4.65267,-12.34041l5.43042,-6.71384l0.26779,44.7197l-39.98888,-3.92748z" data-paper-data="{&quot;index&quot;:null}" fill="#00c91e" stroke-linecap="round"/><path d="M-63.74317,329.84433v-300.60285h64.0631v300.60285z" fill="none" stroke-linecap="butt"/><path d="M479.92748,329.84433v-300.60285h64.0631v300.60285z" fill="none" stroke-linecap="butt"/><path d="M26.14201,-63.91804h428.72905v64.0631h-428.72905z" fill="none" stroke-linecap="butt"/><path d="M26.14201,359.44997h428.72905v64.0631h-428.72905z" fill="none" stroke-linecap="butt"/></g></g></svg>