<svg version="1.1" xmlns="http://www.w3.org/2000/svg" xmlns:xlink="http://www.w3.org/1999/xlink" width="75.77121" height="93.94625" viewBox="0,0,75.77121,93.94625"><g transform="translate(-202.1144,-122.14587)"><g data-paper-data="{&quot;isPaintingLayer&quot;:true}" fill-rule="nonzero" stroke-linejoin="miter" stroke-miterlimit="10" stroke-dasharray="" stroke-dashoffset="0" style="mix-blend-mode: normal"><path d="M203.8644,202.4243c0,-14.94461 0,-39.48589 0,-46.70886c0,-3.74096 5.53686,-10.05754 10.48907,-10.05754c8.27417,0 34.43701,0 49.93671,0c7.01473,0 11.84543,6.57145 11.84543,11.38665c0,7.8367 0,31.03541 0,45.37975c0,6.70303 -5.90194,11.91781 -11.08594,11.91781c-8.49813,0 -34.92782,0 -50.12658,0c-6.5827,0 -11.05868,-4.90116 -11.05868,-11.91781z" fill="#499e73" stroke="#00a345" stroke-width="3.5" stroke-linecap="butt"/><path d="M273.33928,189.59821c0,6.9726 -14.57873,12.625 -32.5625,12.625c-17.98377,0 -32.5625,-5.6524 -32.5625,-12.625c0,-6.9726 14.57873,-12.625 32.5625,-12.625c17.98377,0 32.5625,5.6524 32.5625,12.625z" fill="#464646" stroke="#000000" stroke-width="2" stroke-linecap="butt"/><path d="M224.71428,190.72321c0,0 -3.26105,-8.19898 -3.49962,-12.49308c-0.2179,-3.92217 2.12462,-12.25692 2.12462,-12.25692c0,0 5.18881,-12.3759 9.18885,-17.25509c3.52237,-4.29651 13.56115,-10.49491 13.56115,-10.49491c0,0 4.12903,-2.81037 6.30103,-3.18216c2.42505,-0.4151 7.57397,0.80716 7.57397,0.80716c0,0 -4.2669,2.75091 -5.53832,4.36391c-1.48649,1.88585 -2.83668,6.26109 -2.83668,6.26109c0,0 -3.75583,6.04373 -4.73063,9.4352c-1.02289,3.55881 -1.26937,11.4398 -1.26937,11.4398c0,0 2.14054,6.7527 3.80056,9.4691c1.53917,2.51864 5.82444,6.2809 5.82444,6.2809l6,4.75" fill="#464646" stroke="#000000" stroke-width="2" stroke-linecap="round"/><path d="M234.06347,138.29571l6.98275,-8.14656l3.75,-5.0431l7.24138,-1.81034l1.93966,3.23275l-2.71552,3.62069l-3.75,2.71552l-4.65517,7.11207l0.77586,1.68103l4.13793,-6.46552l5.43104,-5.94827l8.40517,-4.78449l4.26725,1.55173l0.90517,4.52586l-5.30172,3.62069l-8.40517,4.65517l-6.46552,8.66379l5.81896,-7.5l12.28448,-8.27586l4.26724,-1.2931l3.10345,4.78448l-1.81035,2.4569l-8.53448,2.5l-8.01724,7.62931l-3.49138,4.65518l1.42242,4.39655l4.91379,-1.68104l1.16379,-5.68965l7.11207,-2.32758l2.06896,4.26724l-4.65518,8.92242l-5.68965,4.78448l-10.86207,1.2931l-11.76725,-9.82758l-1.93966,-7.24138z" fill="#303030" stroke="#000000" stroke-width="2" stroke-linecap="round"/></g></g></svg>